#!OML:ASF F:\twosubjects\two\Thursday\Session 1\Rory.ASF
:FULLY-SPECIFIED
:DEGREES
230
root 13.4913 17.823 -12.3746 3.32413 -20.4875 4.0098
lowerback 0.238531 1.93884 -3.67022
upperback 3.17411 2.71071 -3.27726
thorax 3.12532 1.29451 -1.25457
lowerneck -3.99933 -1.76916 -2.09992
upperneck 48.9885 -4.09836 2.20137
head 20.0081 -1.98684 0.755419
rclavicle -2.98177e-014 -1.90833e-014
rhumerus -33.4584 -12.914 -81.225
rradius 30.5244
rwrist 20.4492
rhand -22.1422 23.2917
rfingers 7.12502
rthumb 4.27142 -6.6452
lclavicle -2.98177e-014 -1.90833e-014
lhumerus -29.7702 10.5585 81.8833
lradius 33.9291
lwrist -18.6006
lhand -13.2681 30.471
lfingers 7.12502
lthumb 12.8348 60.0564
rfemur -8.3223 7.01057 14.1469
rtibia 25.6237
rfoot -18.4817 -17.4719
rtoes -10.9512
lfemur -11.1561 5.10251 -23.6076
ltibia 18.416
lfoot -12.2303 8.70443
ltoes 24.8212
231
root 13.4718 17.8242 -12.3985 3.29278 -20.326 4.23999
lowerback 0.111218 1.87831 -4.17239
upperback 3.14751 2.63907 -3.04957
thorax 3.13763 1.24154 -0.738651
lowerneck -4.32084 -1.82802 -2.21313
upperneck 49.0751 -4.08626 2.02084
head 20.1622 -2.01548 0.683816
rclavicle 3.60794e-014 -5.12864e-014
rhumerus -33.4672 -12.4941 -81.2399
rradius 30.6156
rwrist 20.5608
rhand -21.6387 21.2142
rfingers 7.12502
rthumb 4.75764 -8.71236
lclavicle 3.60794e-014 -5.12864e-014
lhumerus -29.6931 10.3124 82.2559
lradius 33.8515
lwrist -18.0244
lhand -12.8607 30.615
lfingers 7.12502
lthumb 13.2275 60.1753
rfemur -8.4045 6.94397 14.0091
rtibia 25.6452
rfoot -18.8839 -17.4895
rtoes -9.83253
lfemur -11.1497 5.13511 -23.7884
ltibia 18.2043
lfoot -11.9783 8.71585
ltoes 23.6054
232
root 13.4511 17.8182 -12.4271 3.31977 -20.0535 4.32989
lowerback 0.117255 1.68047 -4.1736
upperback 3.005 2.36809 -3.04202
thorax 2.99029 1.10991 -0.738401
lowerneck -3.78694 -1.58513 -2.48151
upperneck 48.7721 -3.80218 2.39661
head 19.7918 -1.91721 0.974785
rclavicle -2.69353e-014 -1.31198e-014
rhumerus -33.4529 -12.164 -81.6423
rradius 30.5258
rwrist 20.8608
rhand -21.4131 21.1446
rfingers 7.12502
rthumb 4.97546 -8.77694
lclavicle -2.69353e-014 -1.31198e-014
lhumerus -30.1369 10.9007 81.9552
lradius 34.2089
lwrist -17.8307
lhand -12.2997 30.2925
lfingers 7.12502
lthumb 13.7682 59.8169
rfemur -8.51972 6.72822 14.0387
rtibia 25.7093
rfoot -19.1717 -17.6096
rtoes -9.43897
lfemur -11.1678 5.04828 -23.7509
ltibia 17.9299
lfoot -11.8048 8.46818
ltoes 24.5249
233
root 13.4289 17.8178 -12.451 3.15547 -19.8291 4.69396
lowerback 0.0124521 1.62296 -4.5414
upperback 3.01102 2.3036 -2.99741
thorax 3.04193 1.06648 -0.486411
lowerneck -3.58295 -1.52386 -2.58677
upperneck 48.7099 -3.69993 2.44665
head 19.6874 -1.88895 1.03873
rclavicle 2.9122e-014 -2.14687e-014
rhumerus -32.9683 -11.2813 -81.775
rradius 30.2267
rwrist 20.4571
rhand -21.6208 23.1753
rfingers 7.12502
rthumb 4.77496 -6.75094
lclavicle 2.9122e-014 -2.14687e-014
lhumerus -30.4 11.0342 82.0974
lradius 34.4759
lwrist -17.6248
lhand -12.1483 30.3215
lfingers 7.12502
lthumb 13.9141 59.836
rfemur -8.49745 6.73921 13.7842
rtibia 25.746
rfoot -19.1885 -17.8189
rtoes -9.35764
lfemur -11.121 5.02436 -24.0125
ltibia 17.7347
lfoot -11.5856 8.20629
ltoes 24.9224
234
root 13.4079 17.8218 -12.4752 3.03905 -19.6882 4.76167
lowerback 0.0310347 1.82614 -4.15609
upperback 3.11493 2.57772 -3.21353
thorax 3.15878 1.21399 -0.915776
lowerneck -3.54114 -1.65081 -2.19681
upperneck 48.4615 -4.06631 2.70456
head 19.5133 -1.92548 1.03769
rclavicle -5.36719e-015 1.59028e-015
rhumerus -32.5759 -11.3923 -82.033
rradius 30.0912
rwrist 20.093
rhand -21.6745 24.4597
rfingers 7.12502
rthumb 4.72303 -5.46769
lclavicle -5.36719e-015 1.59028e-015
lhumerus -30.22 9.62823 82.2878
lradius 34.5503
lwrist -17.1675
lhand -12.4022 30.5749
lfingers 7.12502
lthumb 13.6694 60.106
rfemur -8.39814 6.97547 13.841
rtibia 25.7344
rfoot -19.3353 -17.9707
rtoes -8.17815
lfemur -11.0532 5.22783 -24.0015
ltibia 17.6267
lfoot -11.33 7.96617
ltoes 24.1134
235
root 13.3879 17.822 -12.4999 2.93172 -19.5536 4.53313
lowerback 0.175851 2.04286 -3.78419
upperback 3.23621 2.85597 -3.13401
thorax 3.21179 1.36069 -1.03703
lowerneck -3.7906 -1.85534 -1.87526
upperneck 48.3125 -4.45084 2.75443
head 19.4887 -2.00026 0.940521
rclavicle -1.10325e-014 1.98785e-014
rhumerus -32.4574 -11.684 -82.0147
rradius 30.2926
rwrist 19.9192
rhand -21.0866 24.3788
rfingers 7.12502
rthumb 5.29069 -5.53511
lclavicle -1.10325e-014 1.98785e-014
lhumerus -30.237 8.83533 82.6006
lradius 34.802
lwrist -17.195
lhand -13.1783 30.3651
lfingers 7.12502
lthumb 12.9213 59.945
rfemur -8.17964 7.01638 14.2006
rtibia 25.6668
rfoot -19.1434 -18.1261
rtoes -9.56857
lfemur -10.9177 5.44429 -23.6658
ltibia 17.6114
lfoot -11.197 7.74984
ltoes 23.5663
236
root 13.369 17.8195 -12.5247 2.75946 -19.415 4.5101
lowerback 0.398708 2.06212 -3.69577
upperback 3.21993 2.86424 -3.06884
thorax 3.06951 1.36847 -1.02752
lowerneck -4.04606 -1.92345 -2.15493
upperneck 48.5697 -4.69456 3.15334
head 19.7944 -2.09646 1.1539
rclavicle -4.45278e-014 -1.59028e-014
rhumerus -32.6345 -11.3048 -82.1636
rradius 30.7509
rwrist 19.7416
rhand -20.5901 24.2491
rfingers 7.12502
rthumb 5.7701 -5.65235
lclavicle -4.45278e-014 -1.59028e-014
lhumerus -30.5675 8.86192 82.5881
lradius 34.9896
lwrist -17.3138
lhand -14.0364 30.1613
lfingers 7.12502
lthumb 12.094 59.7918
rfemur -7.93388 6.92482 14.3299
rtibia 25.5627
rfoot -18.8059 -18.2712
rtoes -11.9727
lfemur -10.8249 5.65974 -23.5607
ltibia 17.6783
lfoot -11.0561 7.54314
ltoes 22.7752
237
root 13.3486 17.8182 -12.556 2.73062 -19.2375 4.6191
lowerback 0.440799 1.87322 -3.92033
upperback 3.09541 2.60216 -2.86313
thorax 2.89924 1.23209 -0.69959
lowerneck -3.94822 -1.72618 -2.26547
upperneck 48.5344 -4.33649 3.09242
head 19.7189 -1.98305 1.20251
rclavicle -1.33186e-014 -2.14687e-014
rhumerus -32.7895 -10.2268 -82.2787
rradius 31.0989
rwrist 19.4669
rhand -20.5677 24.5111
rfingers 7.12502
rthumb 5.79177 -5.38977
lclavicle -1.33186e-014 -2.14687e-014
lhumerus -30.9752 9.75521 82.5518
lradius 34.9367
lwrist -17.5722
lhand -13.8653 30.2111
lfingers 7.12502
lthumb 12.259 59.8318
rfemur -7.89103 7.02318 14.3442
rtibia 25.467
rfoot -18.6729 -18.5355
rtoes -12.4438
lfemur -10.9832 5.60278 -23.5928
ltibia 17.7518
lfoot -10.9494 7.52639
ltoes 21.5701
238
root 13.3281 17.8168 -12.5844 2.73502 -18.8988 4.76221
lowerback 0.421086 1.55702 -4.21212
upperback 2.993 2.17445 -2.5626
thorax 2.78867 1.00998 -0.236594
lowerneck -3.87337 -1.48731 -2.55761
upperneck 48.5103 -3.81188 2.89182
head 19.6481 -1.85238 1.24065
rclavicle 8.84592e-015 4.37326e-015
rhumerus -32.6986 -8.95217 -82.3176
rradius 31.1802
rwrist 19.206
rhand -20.8091 25.1972
rfingers 7.12502
rthumb 5.55863 -4.70992
lclavicle 8.84592e-015 4.37326e-015
lhumerus -31.3658 10.8151 82.68
lradius 34.886
lwrist -17.7548
lhand -13.0198 30.5107
lfingers 7.12502
lthumb 13.0741 60.0809
rfemur -7.88989 6.92099 14.3246
rtibia 25.4294
rfoot -18.5791 -18.6734
rtoes -12.3213
lfemur -11.1391 5.08555 -23.6216
ltibia 17.7847
lfoot -10.9682 7.65021
ltoes 21.6728
239
root 13.311 17.8162 -12.6048 2.71092 -18.4747 4.91082
lowerback 0.57873 1.95346 -3.88805
upperback 3.05617 2.70058 -2.94065
thorax 2.7847 1.28536 -0.801146
lowerneck -4.08823 -2.04902 -1.63998
upperneck 48.283 -4.95717 3.10342
head 19.5904 -2.09986 0.990337
rclavicle 7.85199e-015 -1.74931e-014
rhumerus -32.7667 -10.5113 -82.3757
rradius 31.4299
rwrist 19.2304
rhand -21.0396 25.2124
rfingers 7.12502
rthumb 5.33609 -4.70039
lclavicle 7.85199e-015 -1.74931e-014
lhumerus -30.9817 9.13118 82.9506
lradius 34.796
lwrist -17.7874
lhand -12.5364 30.7899
lfingers 7.12502
lthumb 13.5401 60.3296
rfemur -7.85697 6.4903 14.2514
rtibia 25.4239
rfoot -18.6035 -18.5349
rtoes -12.1156
lfemur -11.2191 4.85923 -23.6935
ltibia 17.7588
lfoot -10.7498 7.45401
ltoes 21.618
